<svg width="380" height="352" viewBox="0 0 380 352" version="1.1" xmlns="http://www.w3.org/2000/svg" xmlns:xlink="http://www.w3.org/1999/xlink">
<title>Moon</title>
<desc>Created using Figma</desc>
<g id="Canvas" transform="matrix(2 0 0 2 1562 -684)">
<g id="Moon">
<g id="Moon">
<g id="Moon with stars">
<g id="Subtract">
<use xlink:href="#path0_fill" transform="matrix(0.98193 -0.189245 0.189245 0.98193 -762 369.978)" fill="#C4C4C4"/>
</g>
</g>
</g>
<g id="Star" filter="url(#filter0_f)">
<g id="Ellipse 5">
<use xlink:href="#path1_fill" transform="translate(-743.8 479.2)" fill="#C4C4C4"/>
</g>
<g id="Vector 8">
<use xlink:href="#path2_stroke" transform="translate(-745 478)" fill="#C4C4C4"/>
</g>
<g id="Vector 10">
<use xlink:href="#path3_stroke" transform="translate(-743.8 479.2)" fill="#C4C4C4"/>
</g>
</g>
<g id="Star" filter="url(#filter1_f)">
<g id="Ellipse 5">
<use xlink:href="#path4_fill" transform="translate(-650.6 424.4)" fill="#C4C4C4"/>
</g>
<g id="Vector 8">
<use xlink:href="#path5_stroke" transform="translate(-651 424)" fill="#C4C4C4"/>
</g>
<g id="Vector 10">
<use xlink:href="#path6_stroke" transform="translate(-650.6 424.4)" fill="#C4C4C4"/>
</g>
</g>
<g id="Star" filter="url(#filter2_f)">
<g id="Ellipse 5">
<use xlink:href="#path1_fill" transform="translate(-685.8 434.2)" fill="#C4C4C4"/>
</g>
<g id="Vector 8">
<use xlink:href="#path2_stroke" transform="translate(-687 433)" fill="#C4C4C4"/>
</g>
<g id="Vector 10">
<use xlink:href="#path3_stroke" transform="translate(-685.8 434.2)" fill="#C4C4C4"/>
</g>
</g>
<g id="Star" filter="url(#filter3_f)">
<g id="Ellipse 5">
<use xlink:href="#path1_fill" transform="translate(-668.8 463.2)" fill="#C4C4C4"/>
</g>
<g id="Vector 8">
<use xlink:href="#path2_stroke" transform="translate(-670 462)" fill="#C4C4C4"/>
</g>
<g id="Vector 10">
<use xlink:href="#path3_stroke" transform="translate(-668.8 463.2)" fill="#C4C4C4"/>
</g>
</g>
<g id="Star" filter="url(#filter4_f)">
<g id="Ellipse 5">
<use xlink:href="#path7_fill" transform="translate(-768 436)" fill="#C4C4C4"/>
</g>
<g id="Vector 8">
<use xlink:href="#path8_stroke" transform="translate(-769 435)" fill="#C4C4C4"/>
</g>
<g id="Vector 10">
<use xlink:href="#path9_stroke" transform="translate(-768 436)" fill="#C4C4C4"/>
</g>
</g>
<g id="Star" filter="url(#filter5_f)">
<g id="Ellipse 5">
<use xlink:href="#path7_fill" transform="translate(-757 446)" fill="#C4C4C4"/>
</g>
<g id="Vector 8">
<use xlink:href="#path8_stroke" transform="translate(-758 445)" fill="#C4C4C4"/>
</g>
<g id="Vector 10">
<use xlink:href="#path9_stroke" transform="translate(-757 446)" fill="#C4C4C4"/>
</g>
</g>
<g id="Star" filter="url(#filter6_f)">
<g id="Ellipse 5">
<use xlink:href="#path10_fill" transform="translate(-678.2 408.8)" fill="#C4C4C4"/>
</g>
<g id="Vector 8">
<use xlink:href="#path11_stroke" transform="translate(-679 408)" fill="#C4C4C4"/>
</g>
<g id="Vector 10">
<use xlink:href="#path12_stroke" transform="translate(-678.2 408.8)" fill="#C4C4C4"/>
</g>
</g>
<g id="Star" filter="url(#filter7_f)">
<g id="Ellipse 5">
<use xlink:href="#path13_fill" transform="translate(-677.4 370.6)" fill="#C4C4C4"/>
</g>
<g id="Vector 8">
<use xlink:href="#path14_stroke" transform="translate(-678 370)" fill="#C4C4C4"/>
</g>
<g id="Vector 10">
<use xlink:href="#path15_stroke" transform="translate(-677.4 370.6)" fill="#C4C4C4"/>
</g>
</g>
<g id="Star" filter="url(#filter8_f)">
<g id="Ellipse 5">
<use xlink:href="#path7_fill" transform="translate(-686 387)" fill="#C4C4C4"/>
</g>
<g id="Vector 8">
<use xlink:href="#path8_stroke" transform="translate(-687 386)" fill="#C4C4C4"/>
</g>
<g id="Vector 10">
<use xlink:href="#path9_stroke" transform="translate(-686 387)" fill="#C4C4C4"/>
</g>
</g>
<g id="Star" filter="url(#filter9_f)">
<g id="Ellipse 5">
<use xlink:href="#path4_fill" transform="translate(-658.6 382.4)" fill="#C4C4C4"/>
</g>
<g id="Vector 8">
<use xlink:href="#path5_stroke" transform="translate(-659 382)" fill="#C4C4C4"/>
</g>
<g id="Vector 10">
<use xlink:href="#path6_stroke" transform="translate(-658.6 382.4)" fill="#C4C4C4"/>
</g>
</g>
<g id="Star" filter="url(#filter10_f)">
<g id="Ellipse 5">
<use xlink:href="#path4_fill" transform="translate(-746.6 381.4)" fill="#C4C4C4"/>
</g>
<g id="Vector 8">
<use xlink:href="#path5_stroke" transform="translate(-747 381)" fill="#C4C4C4"/>
</g>
<g id="Vector 10">
<use xlink:href="#path6_stroke" transform="translate(-746.6 381.4)" fill="#C4C4C4"/>
</g>
</g>
</g>
</g>
<defs>
<filter id="filter0_f" filterUnits="userSpaceOnUse" x="-748" y="475" width="12" height="12" color-interpolation-filters="sRGB">
<feFlood flood-opacity="0" result="BackgroundImageFix"/>
<feBlend mode="normal" in="SourceGraphic" in2="BackgroundImageFix" result="shape"/>
<feGaussianBlur stdDeviation="1" result="effect1_foregroundBlur"/>
</filter>
<filter id="filter1_f" filterUnits="userSpaceOnUse" x="-654" y="421" width="8" height="8" color-interpolation-filters="sRGB">
<feFlood flood-opacity="0" result="BackgroundImageFix"/>
<feBlend mode="normal" in="SourceGraphic" in2="BackgroundImageFix" result="shape"/>
<feGaussianBlur stdDeviation="1" result="effect1_foregroundBlur"/>
</filter>
<filter id="filter2_f" filterUnits="userSpaceOnUse" x="-690" y="430" width="12" height="12" color-interpolation-filters="sRGB">
<feFlood flood-opacity="0" result="BackgroundImageFix"/>
<feBlend mode="normal" in="SourceGraphic" in2="BackgroundImageFix" result="shape"/>
<feGaussianBlur stdDeviation="1" result="effect1_foregroundBlur"/>
</filter>
<filter id="filter3_f" filterUnits="userSpaceOnUse" x="-673" y="459" width="12" height="12" color-interpolation-filters="sRGB">
<feFlood flood-opacity="0" result="BackgroundImageFix"/>
<feBlend mode="normal" in="SourceGraphic" in2="BackgroundImageFix" result="shape"/>
<feGaussianBlur stdDeviation="1" result="effect1_foregroundBlur"/>
</filter>
<filter id="filter4_f" filterUnits="userSpaceOnUse" x="-772" y="432" width="11" height="11" color-interpolation-filters="sRGB">
<feFlood flood-opacity="0" result="BackgroundImageFix"/>
<feBlend mode="normal" in="SourceGraphic" in2="BackgroundImageFix" result="shape"/>
<feGaussianBlur stdDeviation="1" result="effect1_foregroundBlur"/>
</filter>
<filter id="filter5_f" filterUnits="userSpaceOnUse" x="-761" y="442" width="11" height="11" color-interpolation-filters="sRGB">
<feFlood flood-opacity="0" result="BackgroundImageFix"/>
<feBlend mode="normal" in="SourceGraphic" in2="BackgroundImageFix" result="shape"/>
<feGaussianBlur stdDeviation="1" result="effect1_foregroundBlur"/>
</filter>
<filter id="filter6_f" filterUnits="userSpaceOnUse" x="-682" y="405" width="10" height="10" color-interpolation-filters="sRGB">
<feFlood flood-opacity="0" result="BackgroundImageFix"/>
<feBlend mode="normal" in="SourceGraphic" in2="BackgroundImageFix" result="shape"/>
<feGaussianBlur stdDeviation="1" result="effect1_foregroundBlur"/>
</filter>
<filter id="filter7_f" filterUnits="userSpaceOnUse" x="-681" y="367" width="9" height="9" color-interpolation-filters="sRGB">
<feFlood flood-opacity="0" result="BackgroundImageFix"/>
<feBlend mode="normal" in="SourceGraphic" in2="BackgroundImageFix" result="shape"/>
<feGaussianBlur stdDeviation="1" result="effect1_foregroundBlur"/>
</filter>
<filter id="filter8_f" filterUnits="userSpaceOnUse" x="-690" y="383" width="11" height="11" color-interpolation-filters="sRGB">
<feFlood flood-opacity="0" result="BackgroundImageFix"/>
<feBlend mode="normal" in="SourceGraphic" in2="BackgroundImageFix" result="shape"/>
<feGaussianBlur stdDeviation="1" result="effect1_foregroundBlur"/>
</filter>
<filter id="filter9_f" filterUnits="userSpaceOnUse" x="-662" y="379" width="8" height="8" color-interpolation-filters="sRGB">
<feFlood flood-opacity="0" result="BackgroundImageFix"/>
<feBlend mode="normal" in="SourceGraphic" in2="BackgroundImageFix" result="shape"/>
<feGaussianBlur stdDeviation="1" result="effect1_foregroundBlur"/>
</filter>
<filter id="filter10_f" filterUnits="userSpaceOnUse" x="-750" y="378" width="8" height="8" color-interpolation-filters="sRGB">
<feFlood flood-opacity="0" result="BackgroundImageFix"/>
<feBlend mode="normal" in="SourceGraphic" in2="BackgroundImageFix" result="shape"/>
<feGaussianBlur stdDeviation="1" result="effect1_foregroundBlur"/>
</filter>
<path id="path0_fill" fill-rule="evenodd" d="M 95.0001 2.69617C 63.2882 11.4486 40 40.5047 40 75C 40 109.439 63.2125 138.457 94.8455 147.261C 95.3826 147.139 95.9131 147.016 96.4369 146.892C 89.6447 148.914 82.4492 150 75 150C 33.5786 150 -2.88047e-05 116.421 2.16415e-11 75C -3.11275e-05 33.5786 33.5786 -4.61381e-06 75 8.16397e-11C 81.9261 -1.01091e-05 88.6328 0.938824 95.0001 2.69617ZM 144.563 103.09C 143.933 104.572 143.258 106.089 142.539 107.65C 143.262 106.157 143.937 104.636 144.563 103.09Z"/>
<path id="path1_fill" d="M 3.6 1.8C 3.6 2.79411 2.79411 3.6 1.8 3.6C 0.805887 3.6 0 2.79411 0 1.8C 0 0.805887 0.805887 0 1.8 0C 2.79411 0 3.6 0.805887 3.6 1.8Z"/>
<path id="path2_stroke" d="M 2.5 6C 2.5 6.27614 2.72386 6.5 3 6.5C 3.27614 6.5 3.5 6.27614 3.5 6L 2.5 6ZM 3.5 0C 3.5 -0.276142 3.27614 -0.5 3 -0.5C 2.72386 -0.5 2.5 -0.276142 2.5 0L 3.5 0ZM 0 2.5C -0.276142 2.5 -0.5 2.72386 -0.5 3C -0.5 3.27614 -0.276142 3.5 0 3.5L 0 2.5ZM 6 3.5C 6.27614 3.5 6.5 3.27614 6.5 3C 6.5 2.72386 6.27614 2.5 6 2.5L 6 3.5ZM 3.5 6L 3.5 0L 2.5 0L 2.5 6L 3.5 6ZM 0 3.5L 6 3.5L 6 2.5L 0 2.5L 0 3.5Z"/>
<path id="path3_stroke" d="M 0 1.2L -0.353553 0.846447L -0.5 1.2L 0 1.2ZM 1.2 0L 1.2 -0.5L 0.846447 -0.353553L 1.2 0ZM 2.4 0L 2.75355 -0.353553L 2.4 -0.5L 2.4 0ZM 3.6 1.2L 4.1 1.2L 3.95355 0.846447L 3.6 1.2ZM 3.6 2.4L 3.95355 2.75355L 4.1 2.4L 3.6 2.4ZM 2.4 3.6L 2.4 4.1L 2.75355 3.95355L 2.4 3.6ZM 1.2 3.6L 0.846447 3.95355L 1.2 4.1L 1.2 3.6ZM 0 2.4L -0.5 2.4L -0.353553 2.75355L 0 2.4ZM 0.353553 1.55355L 1.55355 0.353553L 0.846447 -0.353553L -0.353553 0.846447L 0.353553 1.55355ZM 1.2 0.5L 2.4 0.5L 2.4 -0.5L 1.2 -0.5L 1.2 0.5ZM 2.04645 0.353553L 3.24645 1.55355L 3.95355 0.846447L 2.75355 -0.353553L 2.04645 0.353553ZM 3.1 1.2L 3.1 2.4L 4.1 2.4L 4.1 1.2L 3.1 1.2ZM 3.24645 2.04645L 2.04645 3.24645L 2.75355 3.95355L 3.95355 2.75355L 3.24645 2.04645ZM 2.4 3.1L 1.2 3.1L 1.2 4.1L 2.4 4.1L 2.4 3.1ZM 1.55355 3.24645L 0.353553 2.04645L -0.353553 2.75355L 0.846447 3.95355L 1.55355 3.24645ZM 0.5 2.4L 0.5 1.2L -0.5 1.2L -0.5 2.4L 0.5 2.4Z"/>
<path id="path4_fill" d="M 1.2 0.6C 1.2 0.931371 0.931371 1.2 0.6 1.2C 0.268629 1.2 0 0.931371 0 0.6C 0 0.268629 0.268629 0 0.6 0C 0.931371 0 1.2 0.268629 1.2 0.6Z"/>
<path id="path5_stroke" d="M 0.5 2C 0.5 2.27614 0.723858 2.5 1 2.5C 1.27614 2.5 1.5 2.27614 1.5 2L 0.5 2ZM 1.5 0C 1.5 -0.276142 1.27614 -0.5 1 -0.5C 0.723858 -0.5 0.5 -0.276142 0.5 0L 1.5 0ZM 0 0.5C -0.276142 0.5 -0.5 0.723858 -0.5 1C -0.5 1.27614 -0.276142 1.5 0 1.5L 0 0.5ZM 2 1.5C 2.27614 1.5 2.5 1.27614 2.5 1C 2.5 0.723858 2.27614 0.5 2 0.5L 2 1.5ZM 1.5 2L 1.5 0L 0.5 0L 0.5 2L 1.5 2ZM 0 1.5L 2 1.5L 2 0.5L 0 0.5L 0 1.5Z"/>
<path id="path6_stroke" d="M 0 0.4L -0.353553 0.0464466L -0.5 0.4L 0 0.4ZM 0.4 0L 0.4 -0.5L 0.0464466 -0.353553L 0.4 0ZM 0.8 0L 1.15355 -0.353553L 0.8 -0.5L 0.8 0ZM 1.2 0.4L 1.7 0.4L 1.55355 0.0464466L 1.2 0.4ZM 1.2 0.8L 1.55355 1.15355L 1.7 0.8L 1.2 0.8ZM 0.8 1.2L 0.8 1.7L 1.15355 1.55355L 0.8 1.2ZM 0.4 1.2L 0.0464466 1.55355L 0.4 1.7L 0.4 1.2ZM 0 0.8L -0.5 0.8L -0.353553 1.15355L 0 0.8ZM 0.353553 0.753553L 0.753553 0.353553L 0.0464466 -0.353553L -0.353553 0.0464466L 0.353553 0.753553ZM 0.4 0.5L 0.8 0.5L 0.8 -0.5L 0.4 -0.5L 0.4 0.5ZM 0.446447 0.353553L 0.846447 0.753553L 1.55355 0.0464466L 1.15355 -0.353553L 0.446447 0.353553ZM 0.7 0.4L 0.7 0.8L 1.7 0.8L 1.7 0.4L 0.7 0.4ZM 0.846447 0.446447L 0.446447 0.846447L 1.15355 1.55355L 1.55355 1.15355L 0.846447 0.446447ZM 0.8 0.7L 0.4 0.7L 0.4 1.7L 0.8 1.7L 0.8 0.7ZM 0.753553 0.846447L 0.353553 0.446447L -0.353553 1.15355L 0.0464466 1.55355L 0.753553 0.846447ZM 0.5 0.8L 0.5 0.4L -0.5 0.4L -0.5 0.8L 0.5 0.8Z"/>
<path id="path7_fill" d="M 3 1.5C 3 2.32843 2.32843 3 1.5 3C 0.671573 3 0 2.32843 0 1.5C 0 0.671573 0.671573 0 1.5 0C 2.32843 0 3 0.671573 3 1.5Z"/>
<path id="path8_stroke" d="M 2 5C 2 5.27614 2.22386 5.5 2.5 5.5C 2.77614 5.5 3 5.27614 3 5L 2 5ZM 3 0C 3 -0.276142 2.77614 -0.5 2.5 -0.5C 2.22386 -0.5 2 -0.276142 2 0L 3 0ZM 0 2C -0.276142 2 -0.5 2.22386 -0.5 2.5C -0.5 2.77614 -0.276142 3 0 3L 0 2ZM 5 3C 5.27614 3 5.5 2.77614 5.5 2.5C 5.5 2.22386 5.27614 2 5 2L 5 3ZM 3 5L 3 0L 2 0L 2 5L 3 5ZM 0 3L 5 3L 5 2L 0 2L 0 3Z"/>
<path id="path9_stroke" d="M 0 1L -0.353553 0.646447L -0.5 1L 0 1ZM 1 0L 1 -0.5L 0.646447 -0.353553L 1 0ZM 2 0L 2.35355 -0.353553L 2 -0.5L 2 0ZM 3 1L 3.5 1L 3.35355 0.646447L 3 1ZM 3 2L 3.35355 2.35355L 3.5 2L 3 2ZM 2 3L 2 3.5L 2.35355 3.35355L 2 3ZM 1 3L 0.646447 3.35355L 1 3.5L 1 3ZM 0 2L -0.5 2L -0.353553 2.35355L 0 2ZM 0.353553 1.35355L 1.35355 0.353553L 0.646447 -0.353553L -0.353553 0.646447L 0.353553 1.35355ZM 1 0.5L 2 0.5L 2 -0.5L 1 -0.5L 1 0.5ZM 1.64645 0.353553L 2.64645 1.35355L 3.35355 0.646447L 2.35355 -0.353553L 1.64645 0.353553ZM 2.5 1L 2.5 2L 3.5 2L 3.5 1L 2.5 1ZM 2.64645 1.64645L 1.64645 2.64645L 2.35355 3.35355L 3.35355 2.35355L 2.64645 1.64645ZM 2 2.5L 1 2.5L 1 3.5L 2 3.5L 2 2.5ZM 1.35355 2.64645L 0.353553 1.64645L -0.353553 2.35355L 0.646447 3.35355L 1.35355 2.64645ZM 0.5 2L 0.5 1L -0.5 1L -0.5 2L 0.5 2Z"/>
<path id="path10_fill" d="M 2.4 1.2C 2.4 1.86274 1.86274 2.4 1.2 2.4C 0.537258 2.4 0 1.86274 0 1.2C 0 0.537258 0.537258 0 1.2 0C 1.86274 0 2.4 0.537258 2.4 1.2Z"/>
<path id="path11_stroke" d="M 1.5 4C 1.5 4.27614 1.72386 4.5 2 4.5C 2.27614 4.5 2.5 4.27614 2.5 4L 1.5 4ZM 2.5 0C 2.5 -0.276142 2.27614 -0.5 2 -0.5C 1.72386 -0.5 1.5 -0.276142 1.5 0L 2.5 0ZM 0 1.5C -0.276142 1.5 -0.5 1.72386 -0.5 2C -0.5 2.27614 -0.276142 2.5 0 2.5L 0 1.5ZM 4 2.5C 4.27614 2.5 4.5 2.27614 4.5 2C 4.5 1.72386 4.27614 1.5 4 1.5L 4 2.5ZM 2.5 4L 2.5 0L 1.5 0L 1.5 4L 2.5 4ZM 0 2.5L 4 2.5L 4 1.5L 0 1.5L 0 2.5Z"/>
<path id="path12_stroke" d="M 0 0.8L -0.353553 0.446447L -0.5 0.8L 0 0.8ZM 0.8 0L 0.8 -0.5L 0.446447 -0.353553L 0.8 0ZM 1.6 0L 1.95355 -0.353553L 1.6 -0.5L 1.6 0ZM 2.4 0.8L 2.9 0.8L 2.75355 0.446447L 2.4 0.8ZM 2.4 1.6L 2.75355 1.95355L 2.9 1.6L 2.4 1.6ZM 1.6 2.4L 1.6 2.9L 1.95355 2.75355L 1.6 2.4ZM 0.8 2.4L 0.446447 2.75355L 0.8 2.9L 0.8 2.4ZM 0 1.6L -0.5 1.6L -0.353553 1.95355L 0 1.6ZM 0.353553 1.15355L 1.15355 0.353553L 0.446447 -0.353553L -0.353553 0.446447L 0.353553 1.15355ZM 0.8 0.5L 1.6 0.5L 1.6 -0.5L 0.8 -0.5L 0.8 0.5ZM 1.24645 0.353553L 2.04645 1.15355L 2.75355 0.446447L 1.95355 -0.353553L 1.24645 0.353553ZM 1.9 0.8L 1.9 1.6L 2.9 1.6L 2.9 0.8L 1.9 0.8ZM 2.04645 1.24645L 1.24645 2.04645L 1.95355 2.75355L 2.75355 1.95355L 2.04645 1.24645ZM 1.6 1.9L 0.8 1.9L 0.8 2.9L 1.6 2.9L 1.6 1.9ZM 1.15355 2.04645L 0.353553 1.24645L -0.353553 1.95355L 0.446447 2.75355L 1.15355 2.04645ZM 0.5 1.6L 0.5 0.8L -0.5 0.8L -0.5 1.6L 0.5 1.6Z"/>
<path id="path13_fill" d="M 1.8 0.9C 1.8 1.39706 1.39706 1.8 0.9 1.8C 0.402944 1.8 0 1.39706 0 0.9C 0 0.402944 0.402944 0 0.9 0C 1.39706 0 1.8 0.402944 1.8 0.9Z"/>
<path id="path14_stroke" d="M 1 3C 1 3.27614 1.22386 3.5 1.5 3.5C 1.77614 3.5 2 3.27614 2 3L 1 3ZM 2 0C 2 -0.276142 1.77614 -0.5 1.5 -0.5C 1.22386 -0.5 1 -0.276142 1 0L 2 0ZM 0 1C -0.276142 1 -0.5 1.22386 -0.5 1.5C -0.5 1.77614 -0.276142 2 0 2L 0 1ZM 3 2C 3.27614 2 3.5 1.77614 3.5 1.5C 3.5 1.22386 3.27614 1 3 1L 3 2ZM 2 3L 2 0L 1 0L 1 3L 2 3ZM 0 2L 3 2L 3 1L 0 1L 0 2Z"/>
<path id="path15_stroke" d="M 0 0.6L -0.353553 0.246447L -0.5 0.6L 0 0.6ZM 0.6 0L 0.6 -0.5L 0.246447 -0.353553L 0.6 0ZM 1.2 0L 1.55355 -0.353553L 1.2 -0.5L 1.2 0ZM 1.8 0.6L 2.3 0.6L 2.15355 0.246447L 1.8 0.6ZM 1.8 1.2L 2.15355 1.55355L 2.3 1.2L 1.8 1.2ZM 1.2 1.8L 1.2 2.3L 1.55355 2.15355L 1.2 1.8ZM 0.6 1.8L 0.246447 2.15355L 0.6 2.3L 0.6 1.8ZM 0 1.2L -0.5 1.2L -0.353553 1.55355L 0 1.2ZM 0.353553 0.953553L 0.953553 0.353553L 0.246447 -0.353553L -0.353553 0.246447L 0.353553 0.953553ZM 0.6 0.5L 1.2 0.5L 1.2 -0.5L 0.6 -0.5L 0.6 0.5ZM 0.846447 0.353553L 1.44645 0.953553L 2.15355 0.246447L 1.55355 -0.353553L 0.846447 0.353553ZM 1.3 0.6L 1.3 1.2L 2.3 1.2L 2.3 0.6L 1.3 0.6ZM 1.44645 0.846447L 0.846447 1.44645L 1.55355 2.15355L 2.15355 1.55355L 1.44645 0.846447ZM 1.2 1.3L 0.6 1.3L 0.6 2.3L 1.2 2.3L 1.2 1.3ZM 0.953553 1.44645L 0.353553 0.846447L -0.353553 1.55355L 0.246447 2.15355L 0.953553 1.44645ZM 0.5 1.2L 0.5 0.6L -0.5 0.6L -0.5 1.2L 0.5 1.2Z"/>
</defs>
</svg>
