<svg xmlns="http://www.w3.org/2000/svg" viewBox="0 0 260 196.676">
  <defs>
    <style>
      .cls-1 {
        fill: #737373;
      }

      .cls-2 {
        fill: #3498db;
      }

      .cls-3 {
        fill: #c4c4c4;
      }
    </style>
  </defs>
  <g id="Group_6" data-name="Group 6" transform="translate(-1646 792)">
    <g id="Group_5" data-name="Group 5">
      <g id="Ellipse_2" data-name="Ellipse 2" transform="translate(2796 -1866)">
        <path id="Path_114" data-name="Path 114" class="cls-1" d="M115.556,55.055c0,30.406-25.868,55.055-57.778,55.055S0,85.461,0,55.055,25.868,0,57.778,0,115.556,24.649,115.556,55.055Z" transform="translate(-1150 1112.538)"/>
      </g>
      <g id="Ellipse_2-2" data-name="Ellipse 2" transform="translate(2796 -1866)">
        <path id="Path_115" data-name="Path 115" class="cls-1" d="M115.556,55.055c0,30.406-25.868,55.055-57.778,55.055S0,85.461,0,55.055,25.868,0,57.778,0,115.556,24.649,115.556,55.055Z" transform="translate(-1077.778 1074)"/>
      </g>
      <g id="Ellipse_2-3" data-name="Ellipse 2" transform="translate(2796 -1866)">
        <path id="Path_116" data-name="Path 116" class="cls-1" d="M115.556,55.055c0,30.406-25.868,55.055-57.778,55.055S0,85.461,0,55.055,25.868,0,57.778,0,115.556,24.649,115.556,55.055Z" transform="translate(-1005.556 1112.538)"/>
      </g>
      <g id="Vector_3" data-name="Vector 3" transform="translate(2796 -1866)">
        <path id="Path_117" data-name="Path 117" class="cls-1" d="M150.222,42.668H0L54.889,0H92.444Z" transform="translate(-1095.112 1179.98)"/>
      </g>
      <g id="Group_1" data-name="Group 1" transform="translate(16 -3)">
        <path id="Path_118" data-name="Path 118" class="cls-2" d="M8.667,3.44c0,1.9-1.94,3.44-4.333,3.44S0,5.34,0,3.44,1.94,0,4.333,0,8.667,1.54,8.667,3.44Z" transform="translate(1706.666 -623.204)"/>
        <path id="Path_119" data-name="Path 119" class="cls-2" d="M-1,15.479a1,1,0,0,0,1,1,1,1,0,0,0,1-1ZM1,0A1,1,0,0,0,0-1,1,1,0,0,0-1,0ZM1,15.479V0H-1V15.479Z" transform="translate(1711 -635.244)"/>
      </g>
      <g id="Group_4" data-name="Group 4" transform="translate(5 21)">
        <path id="Path_118-2" data-name="Path 118" class="cls-2" d="M8.667,3.44c0,1.9-1.94,3.44-4.333,3.44S0,5.34,0,3.44,1.94,0,4.333,0,8.667,1.54,8.667,3.44Z" transform="translate(1706.666 -623.204)"/>
        <path id="Path_119-2" data-name="Path 119" class="cls-2" d="M-1,15.479a1,1,0,0,0,1,1,1,1,0,0,0,1-1ZM1,0A1,1,0,0,0,0-1,1,1,0,0,0-1,0ZM1,15.479V0H-1V15.479Z" transform="translate(1711 -635.244)"/>
      </g>
      <g id="Group_2" data-name="Group 2" transform="translate(44 -3)">
        <path id="Path_118-3" data-name="Path 118" class="cls-2" d="M8.667,3.44c0,1.9-1.94,3.44-4.333,3.44S0,5.34,0,3.44,1.94,0,4.333,0,8.667,1.54,8.667,3.44Z" transform="translate(1706.666 -623.204)"/>
        <path id="Path_119-3" data-name="Path 119" class="cls-2" d="M-1,15.479a1,1,0,0,0,1,1,1,1,0,0,0,1-1ZM1,0A1,1,0,0,0,0-1,1,1,0,0,0-1,0ZM1,15.479V0H-1V15.479Z" transform="translate(1711 -635.244)"/>
      </g>
      <g id="Group_3" data-name="Group 3" transform="translate(33 21)">
        <path id="Path_118-4" data-name="Path 118" class="cls-2" d="M8.667,3.44c0,1.9-1.94,3.44-4.333,3.44S0,5.34,0,3.44,1.94,0,4.333,0,8.667,1.54,8.667,3.44Z" transform="translate(1706.666 -623.204)"/>
        <path id="Path_119-4" data-name="Path 119" class="cls-2" d="M-1,15.479a1,1,0,0,0,1,1,1,1,0,0,0,1-1ZM1,0A1,1,0,0,0,0-1,1,1,0,0,0-1,0ZM1,15.479V0H-1V15.479Z" transform="translate(1711 -635.244)"/>
      </g>
      <g id="Snowflake" transform="translate(2502 -1868)">
        <g id="Vector_11" data-name="Vector 11">
          <path id="Path_142" data-name="Path 142" class="cls-3" d="M3.189,0a.3.3,0,0,0-.3-.3.3.3,0,0,0-.3.3Zm-.6,18.182a.3.3,0,0,0,.6,0ZM5.978,1.522a.3.3,0,0,0-.4-.446ZM.2,1.076A.3.3,0,0,0-.223,1.1.3.3,0,0,0-.2,1.522ZM5.577,17.106a.3.3,0,1,0,.4-.446ZM-.2,16.66a.3.3,0,0,0-.023.424.3.3,0,0,0,.424.022ZM2.589,0V3.9h.6V0Zm.5,4.119,2.889-2.6-.4-.446-2.889,2.6Zm0-.446L.2,1.076l-.4.446,2.889,2.6Zm-.5.223v10.39h.6V3.9Zm0,10.39v3.9h.6v-3.9Zm.1.223,2.889,2.6.4-.446-2.889-2.6Zm0-.446L-.2,16.66l.4.446,2.889-2.6Z" transform="translate(-716.866 1229.844)"/>
        </g>
        <g id="Vector_11-2" data-name="Vector 11">
          <path id="Path_143" data-name="Path 143" class="cls-3" d="M3.189,0a.3.3,0,0,0-.3-.3.3.3,0,0,0-.3.3Zm-.6,18.182a.3.3,0,0,0,.6,0ZM5.978,1.522a.3.3,0,0,0-.4-.446ZM.2,1.076A.3.3,0,0,0-.223,1.1.3.3,0,0,0-.2,1.522ZM5.577,17.106a.3.3,0,1,0,.4-.446ZM-.2,16.66a.3.3,0,0,0-.023.424.3.3,0,0,0,.424.022ZM2.589,0V3.9h.6V0Zm.5,4.119,2.889-2.6-.4-.446-2.889,2.6Zm0-.446L.2,1.076l-.4.446,2.889,2.6Zm-.5.223v10.39h.6V3.9Zm0,10.39v3.9h.6v-3.9Zm.1.223,2.889,2.6.4-.446-2.889-2.6Zm0-.446L-.2,16.66l.4.446,2.889-2.6Z" transform="translate(-716.866 1229.844)"/>
        </g>
        <g id="Vector_11-3" data-name="Vector 11">
          <path id="Path_144" data-name="Path 144" class="cls-3" d="M-706.116,1244.66a.34.34,0,0,0,.441-.06.265.265,0,0,0-.054-.4Zm-15.722-11.45a.34.34,0,0,0-.441.06.265.265,0,0,0,.054.4Zm12.707,12.551a.3.3,0,0,0,.354.234.3.3,0,0,0,.269-.328Zm3.838-3.9a.3.3,0,0,0,.279-.321.3.3,0,0,0-.346-.244Zm-17.368-5.847a.3.3,0,0,0-.279.321.3.3,0,0,0,.347.244Zm3.838-3.9a.3.3,0,0,0-.354-.234.3.3,0,0,0-.269.328Zm13.094,12.093-3.452-2.355-.387.458,3.452,2.355Zm-3.957-2.079.555,3.639.623-.093-.555-3.639Zm.345.236,4.048-.5-.068-.565-4.048.5Zm.16-.511-9.205-6.281-.387.458,9.205,6.281Zm-9.205-6.281-3.452-2.355-.387.458,3.452,2.355Zm-.227-.053-4.048.5.068.565,4.048-.5Zm.345.236-.555-3.639-.623.093.555,3.639Z"/>
        </g>
        <g id="Vector_11-4" data-name="Vector 11">
          <path id="Path_145" data-name="Path 145" class="cls-3" d="M-705.731,1233.666a.265.265,0,0,0,.054-.4.34.34,0,0,0-.441-.06Zm-16.491,10.539a.265.265,0,0,0-.054.4.34.34,0,0,0,.441.06Zm16.861-7.632a.3.3,0,0,0,.346-.244.3.3,0,0,0-.279-.321Zm-3.149-4.373a.3.3,0,0,0-.269-.327.3.3,0,0,0-.354.235Zm-10.932,13.47a.3.3,0,0,0,.269.328.3.3,0,0,0,.354-.235Zm-3.149-4.373a.3.3,0,0,0-.346.244.3.3,0,0,0,.279.321Zm16.473-8.09-3.451,2.357.387.458,3.451-2.357Zm-3.291,2.868,4.048.5.068-.565-4.048-.5Zm.345-.236.553-3.64-.623-.093-.553,3.639Zm-.505-.276-9.2,6.284.387.458,9.2-6.284Zm-9.2,6.284-3.451,2.357.387.458,3.451-2.357Zm-.118.183-.553,3.639.623.093.553-3.639Zm.345-.236-4.048-.5-.068.564,4.048.5Z"/>
        </g>
      </g>
      <g id="Snowflake-2" data-name="Snowflake" transform="translate(2491 -1844)">
        <g id="Vector_11-5" data-name="Vector 11">
          <path id="Path_142-2" data-name="Path 142" class="cls-3" d="M3.189,0a.3.3,0,0,0-.3-.3.3.3,0,0,0-.3.3Zm-.6,18.182a.3.3,0,0,0,.6,0ZM5.978,1.522a.3.3,0,0,0-.4-.446ZM.2,1.076A.3.3,0,0,0-.223,1.1.3.3,0,0,0-.2,1.522ZM5.577,17.106a.3.3,0,1,0,.4-.446ZM-.2,16.66a.3.3,0,0,0-.023.424.3.3,0,0,0,.424.022ZM2.589,0V3.9h.6V0Zm.5,4.119,2.889-2.6-.4-.446-2.889,2.6Zm0-.446L.2,1.076l-.4.446,2.889,2.6Zm-.5.223v10.39h.6V3.9Zm0,10.39v3.9h.6v-3.9Zm.1.223,2.889,2.6.4-.446-2.889-2.6Zm0-.446L-.2,16.66l.4.446,2.889-2.6Z" transform="translate(-716.866 1229.844)"/>
        </g>
        <g id="Vector_11-6" data-name="Vector 11">
          <path id="Path_143-2" data-name="Path 143" class="cls-3" d="M3.189,0a.3.3,0,0,0-.3-.3.3.3,0,0,0-.3.3Zm-.6,18.182a.3.3,0,0,0,.6,0ZM5.978,1.522a.3.3,0,0,0-.4-.446ZM.2,1.076A.3.3,0,0,0-.223,1.1.3.3,0,0,0-.2,1.522ZM5.577,17.106a.3.3,0,1,0,.4-.446ZM-.2,16.66a.3.3,0,0,0-.023.424.3.3,0,0,0,.424.022ZM2.589,0V3.9h.6V0Zm.5,4.119,2.889-2.6-.4-.446-2.889,2.6Zm0-.446L.2,1.076l-.4.446,2.889,2.6Zm-.5.223v10.39h.6V3.9Zm0,10.39v3.9h.6v-3.9Zm.1.223,2.889,2.6.4-.446-2.889-2.6Zm0-.446L-.2,16.66l.4.446,2.889-2.6Z" transform="translate(-716.866 1229.844)"/>
        </g>
        <g id="Vector_11-7" data-name="Vector 11">
          <path id="Path_144-2" data-name="Path 144" class="cls-3" d="M-706.116,1244.66a.34.34,0,0,0,.441-.06.265.265,0,0,0-.054-.4Zm-15.722-11.45a.34.34,0,0,0-.441.06.265.265,0,0,0,.054.4Zm12.707,12.551a.3.3,0,0,0,.354.234.3.3,0,0,0,.269-.328Zm3.838-3.9a.3.3,0,0,0,.279-.321.3.3,0,0,0-.346-.244Zm-17.368-5.847a.3.3,0,0,0-.279.321.3.3,0,0,0,.347.244Zm3.838-3.9a.3.3,0,0,0-.354-.234.3.3,0,0,0-.269.328Zm13.094,12.093-3.452-2.355-.387.458,3.452,2.355Zm-3.957-2.079.555,3.639.623-.093-.555-3.639Zm.345.236,4.048-.5-.068-.565-4.048.5Zm.16-.511-9.205-6.281-.387.458,9.205,6.281Zm-9.205-6.281-3.452-2.355-.387.458,3.452,2.355Zm-.227-.053-4.048.5.068.565,4.048-.5Zm.345.236-.555-3.639-.623.093.555,3.639Z"/>
        </g>
        <g id="Vector_11-8" data-name="Vector 11">
          <path id="Path_145-2" data-name="Path 145" class="cls-3" d="M-705.731,1233.666a.265.265,0,0,0,.054-.4.34.34,0,0,0-.441-.06Zm-16.491,10.539a.265.265,0,0,0-.054.4.34.34,0,0,0,.441.06Zm16.861-7.632a.3.3,0,0,0,.346-.244.3.3,0,0,0-.279-.321Zm-3.149-4.373a.3.3,0,0,0-.269-.327.3.3,0,0,0-.354.235Zm-10.932,13.47a.3.3,0,0,0,.269.328.3.3,0,0,0,.354-.235Zm-3.149-4.373a.3.3,0,0,0-.346.244.3.3,0,0,0,.279.321Zm16.473-8.09-3.451,2.357.387.458,3.451-2.357Zm-3.291,2.868,4.048.5.068-.565-4.048-.5Zm.345-.236.553-3.64-.623-.093-.553,3.639Zm-.505-.276-9.2,6.284.387.458,9.2-6.284Zm-9.2,6.284-3.451,2.357.387.458,3.451-2.357Zm-.118.183-.553,3.639.623.093.553-3.639Zm.345-.236-4.048-.5-.068.564,4.048.5Z"/>
        </g>
      </g>
      <g id="Snowflake-3" data-name="Snowflake" transform="translate(2539 -1868)">
        <g id="Vector_11-9" data-name="Vector 11">
          <path id="Path_142-3" data-name="Path 142" class="cls-3" d="M3.189,0a.3.3,0,0,0-.3-.3.3.3,0,0,0-.3.3Zm-.6,18.182a.3.3,0,0,0,.6,0ZM5.978,1.522a.3.3,0,0,0-.4-.446ZM.2,1.076A.3.3,0,0,0-.223,1.1.3.3,0,0,0-.2,1.522ZM5.577,17.106a.3.3,0,1,0,.4-.446ZM-.2,16.66a.3.3,0,0,0-.023.424.3.3,0,0,0,.424.022ZM2.589,0V3.9h.6V0Zm.5,4.119,2.889-2.6-.4-.446-2.889,2.6Zm0-.446L.2,1.076l-.4.446,2.889,2.6Zm-.5.223v10.39h.6V3.9Zm0,10.39v3.9h.6v-3.9Zm.1.223,2.889,2.6.4-.446-2.889-2.6Zm0-.446L-.2,16.66l.4.446,2.889-2.6Z" transform="translate(-716.866 1229.844)"/>
        </g>
        <g id="Vector_11-10" data-name="Vector 11">
          <path id="Path_143-3" data-name="Path 143" class="cls-3" d="M3.189,0a.3.3,0,0,0-.3-.3.3.3,0,0,0-.3.3Zm-.6,18.182a.3.3,0,0,0,.6,0ZM5.978,1.522a.3.3,0,0,0-.4-.446ZM.2,1.076A.3.3,0,0,0-.223,1.1.3.3,0,0,0-.2,1.522ZM5.577,17.106a.3.3,0,1,0,.4-.446ZM-.2,16.66a.3.3,0,0,0-.023.424.3.3,0,0,0,.424.022ZM2.589,0V3.9h.6V0Zm.5,4.119,2.889-2.6-.4-.446-2.889,2.6Zm0-.446L.2,1.076l-.4.446,2.889,2.6Zm-.5.223v10.39h.6V3.9Zm0,10.39v3.9h.6v-3.9Zm.1.223,2.889,2.6.4-.446-2.889-2.6Zm0-.446L-.2,16.66l.4.446,2.889-2.6Z" transform="translate(-716.866 1229.844)"/>
        </g>
        <g id="Vector_11-11" data-name="Vector 11">
          <path id="Path_144-3" data-name="Path 144" class="cls-3" d="M-706.116,1244.66a.34.34,0,0,0,.441-.06.265.265,0,0,0-.054-.4Zm-15.722-11.45a.34.34,0,0,0-.441.06.265.265,0,0,0,.054.4Zm12.707,12.551a.3.3,0,0,0,.354.234.3.3,0,0,0,.269-.328Zm3.838-3.9a.3.3,0,0,0,.279-.321.3.3,0,0,0-.346-.244Zm-17.368-5.847a.3.3,0,0,0-.279.321.3.3,0,0,0,.347.244Zm3.838-3.9a.3.3,0,0,0-.354-.234.3.3,0,0,0-.269.328Zm13.094,12.093-3.452-2.355-.387.458,3.452,2.355Zm-3.957-2.079.555,3.639.623-.093-.555-3.639Zm.345.236,4.048-.5-.068-.565-4.048.5Zm.16-.511-9.205-6.281-.387.458,9.205,6.281Zm-9.205-6.281-3.452-2.355-.387.458,3.452,2.355Zm-.227-.053-4.048.5.068.565,4.048-.5Zm.345.236-.555-3.639-.623.093.555,3.639Z"/>
        </g>
        <g id="Vector_11-12" data-name="Vector 11">
          <path id="Path_145-3" data-name="Path 145" class="cls-3" d="M-705.731,1233.666a.265.265,0,0,0,.054-.4.34.34,0,0,0-.441-.06Zm-16.491,10.539a.265.265,0,0,0-.054.4.34.34,0,0,0,.441.06Zm16.861-7.632a.3.3,0,0,0,.346-.244.3.3,0,0,0-.279-.321Zm-3.149-4.373a.3.3,0,0,0-.269-.327.3.3,0,0,0-.354.235Zm-10.932,13.47a.3.3,0,0,0,.269.328.3.3,0,0,0,.354-.235Zm-3.149-4.373a.3.3,0,0,0-.346.244.3.3,0,0,0,.279.321Zm16.473-8.09-3.451,2.357.387.458,3.451-2.357Zm-3.291,2.868,4.048.5.068-.565-4.048-.5Zm.345-.236.553-3.64-.623-.093-.553,3.639Zm-.505-.276-9.2,6.284.387.458,9.2-6.284Zm-9.2,6.284-3.451,2.357.387.458,3.451-2.357Zm-.118.183-.553,3.639.623.093.553-3.639Zm.345-.236-4.048-.5-.068.564,4.048.5Z"/>
        </g>
      </g>
      <g id="Snowflake-4" data-name="Snowflake" transform="translate(2528 -1844)">
        <g id="Vector_11-13" data-name="Vector 11">
          <path id="Path_142-4" data-name="Path 142" class="cls-3" d="M3.189,0a.3.3,0,0,0-.3-.3.3.3,0,0,0-.3.3Zm-.6,18.182a.3.3,0,0,0,.6,0ZM5.978,1.522a.3.3,0,0,0-.4-.446ZM.2,1.076A.3.3,0,0,0-.223,1.1.3.3,0,0,0-.2,1.522ZM5.577,17.106a.3.3,0,1,0,.4-.446ZM-.2,16.66a.3.3,0,0,0-.023.424.3.3,0,0,0,.424.022ZM2.589,0V3.9h.6V0Zm.5,4.119,2.889-2.6-.4-.446-2.889,2.6Zm0-.446L.2,1.076l-.4.446,2.889,2.6Zm-.5.223v10.39h.6V3.9Zm0,10.39v3.9h.6v-3.9Zm.1.223,2.889,2.6.4-.446-2.889-2.6Zm0-.446L-.2,16.66l.4.446,2.889-2.6Z" transform="translate(-716.866 1229.844)"/>
        </g>
        <g id="Vector_11-14" data-name="Vector 11">
          <path id="Path_143-4" data-name="Path 143" class="cls-3" d="M3.189,0a.3.3,0,0,0-.3-.3.3.3,0,0,0-.3.3Zm-.6,18.182a.3.3,0,0,0,.6,0ZM5.978,1.522a.3.3,0,0,0-.4-.446ZM.2,1.076A.3.3,0,0,0-.223,1.1.3.3,0,0,0-.2,1.522ZM5.577,17.106a.3.3,0,1,0,.4-.446ZM-.2,16.66a.3.3,0,0,0-.023.424.3.3,0,0,0,.424.022ZM2.589,0V3.9h.6V0Zm.5,4.119,2.889-2.6-.4-.446-2.889,2.6Zm0-.446L.2,1.076l-.4.446,2.889,2.6Zm-.5.223v10.39h.6V3.9Zm0,10.39v3.9h.6v-3.9Zm.1.223,2.889,2.6.4-.446-2.889-2.6Zm0-.446L-.2,16.66l.4.446,2.889-2.6Z" transform="translate(-716.866 1229.844)"/>
        </g>
        <g id="Vector_11-15" data-name="Vector 11">
          <path id="Path_144-4" data-name="Path 144" class="cls-3" d="M-706.116,1244.66a.34.34,0,0,0,.441-.06.265.265,0,0,0-.054-.4Zm-15.722-11.45a.34.34,0,0,0-.441.06.265.265,0,0,0,.054.4Zm12.707,12.551a.3.3,0,0,0,.354.234.3.3,0,0,0,.269-.328Zm3.838-3.9a.3.3,0,0,0,.279-.321.3.3,0,0,0-.346-.244Zm-17.368-5.847a.3.3,0,0,0-.279.321.3.3,0,0,0,.347.244Zm3.838-3.9a.3.3,0,0,0-.354-.234.3.3,0,0,0-.269.328Zm13.094,12.093-3.452-2.355-.387.458,3.452,2.355Zm-3.957-2.079.555,3.639.623-.093-.555-3.639Zm.345.236,4.048-.5-.068-.565-4.048.5Zm.16-.511-9.205-6.281-.387.458,9.205,6.281Zm-9.205-6.281-3.452-2.355-.387.458,3.452,2.355Zm-.227-.053-4.048.5.068.565,4.048-.5Zm.345.236-.555-3.639-.623.093.555,3.639Z"/>
        </g>
        <g id="Vector_11-16" data-name="Vector 11">
          <path id="Path_145-4" data-name="Path 145" class="cls-3" d="M-705.731,1233.666a.265.265,0,0,0,.054-.4.34.34,0,0,0-.441-.06Zm-16.491,10.539a.265.265,0,0,0-.054.4.34.34,0,0,0,.441.06Zm16.861-7.632a.3.3,0,0,0,.346-.244.3.3,0,0,0-.279-.321Zm-3.149-4.373a.3.3,0,0,0-.269-.327.3.3,0,0,0-.354.235Zm-10.932,13.47a.3.3,0,0,0,.269.328.3.3,0,0,0,.354-.235Zm-3.149-4.373a.3.3,0,0,0-.346.244.3.3,0,0,0,.279.321Zm16.473-8.09-3.451,2.357.387.458,3.451-2.357Zm-3.291,2.868,4.048.5.068-.565-4.048-.5Zm.345-.236.553-3.64-.623-.093-.553,3.639Zm-.505-.276-9.2,6.284.387.458,9.2-6.284Zm-9.2,6.284-3.451,2.357.387.458,3.451-2.357Zm-.118.183-.553,3.639.623.093.553-3.639Zm.345-.236-4.048-.5-.068.564,4.048.5Z"/>
        </g>
      </g>
    </g>
  </g>
</svg>
