<svg width="408" height="408" viewBox="0 0 408 408" version="1.1" xmlns="http://www.w3.org/2000/svg" xmlns:xlink="http://www.w3.org/1999/xlink">
<title>Sun</title>
<desc>Created using Figma</desc>
<g id="Canvas" transform="matrix(2 0 0 2 2638 -648)">
<g id="Sun">
<g id="Ellipse">
<use xlink:href="#path0_fill" transform="translate(-1279.84 363.5)" fill="#F7D771"/>
</g>
<g id="Vector">
<use xlink:href="#path1_stroke" transform="matrix(-6.66134e-16 -1 1 -4.62593e-16 -1317 426.417)" fill="#F7D771"/>
</g>
<g id="Vector">
<use xlink:href="#path2_stroke" transform="matrix(0.707844 -0.706369 0.707844 0.706369 -1288.19 356)" fill="#F7D771"/>
</g>
<g id="Vector">
<use xlink:href="#path3_stroke" transform="matrix(-0.707844 -0.706369 0.707844 -0.706369 -1167.1 375.791)" fill="#F7D771"/>
</g>
<g id="Vector">
<use xlink:href="#path2_stroke" transform="matrix(0.707844 0.706369 -0.707844 0.706369 -1267.52 476)" fill="#F7D771"/>
</g>
<g id="Vector">
<use xlink:href="#path3_stroke" transform="matrix(-0.707844 0.706369 -0.707844 -0.706369 -1146.44 496.624)" fill="#F7D771"/>
</g>
<g id="Vector">
<use xlink:href="#path1_stroke" transform="matrix(-5.5627e-16 -1 1 -5.53955e-16 -1146.23 426)" fill="#F7D771"/>
</g>
<g id="Vector">
<use xlink:href="#path4_stroke" transform="translate(-1217.21 326)" fill="#F7D771"/>
</g>
<g id="Vector">
<use xlink:href="#path4_stroke" transform="translate(-1217.21 496.833)" fill="#F7D771"/>
</g>
</g>
</g>
<defs>
<path id="path0_fill" d="M 125.261 62.5C 125.261 97.0178 97.2203 125 62.6305 125C 28.0406 125 0 97.0178 0 62.5C 0 27.9822 28.0406 0 62.6305 0C 97.2203 0 125.261 27.9822 125.261 62.5Z"/>
<path id="path1_stroke" d="M -2 29.2276C -2 30.3321 -1.10457 31.2276 0 31.2276C 1.10457 31.2276 2 30.3321 2 29.2276L -2 29.2276ZM 2 0C 2 -1.10457 1.10457 -2 0 -2C -1.10457 -2 -2 -1.10457 -2 0L 2 0ZM 2 29.2276L 2 0L -2 0L -2 29.2276L 2 29.2276Z"/>
<path id="path2_stroke" d="M -2 29.1971C -2 30.3017 -1.10457 31.1971 0 31.1971C 1.10457 31.1971 2 30.3017 2 29.1971L -2 29.1971ZM 2 0C 2 -1.10457 1.10457 -2 0 -2C -1.10457 -2 -2 -1.10457 -2 0L 2 0ZM 2 29.1971L 2 0L -2 0L -2 29.1971L 2 29.1971Z"/>
<path id="path3_stroke" d="M -2 29.1971C -2 30.3017 -1.10457 31.1971 0 31.1971C 1.10457 31.1971 2 30.3017 2 29.1971L -2 29.1971ZM 2 0C 2 -1.10457 1.10457 -2 0 -2C -1.10457 -2 -2 -1.10457 -2 0L 2 0ZM 2 29.1971L 2 0L -2 0L -2 29.1971L 2 29.1971Z"/>
<path id="path4_stroke" d="M -2 29.1667C -2 30.2712 -1.10457 31.1667 0 31.1667C 1.10457 31.1667 2 30.2712 2 29.1667L -2 29.1667ZM 2 0C 2 -1.10457 1.10457 -2 0 -2C -1.10457 -2 -2 -1.10457 -2 0L 2 0ZM 2 29.1667L 2 0L -2 0L -2 29.1667L 2 29.1667Z"/>
</defs>
</svg>
