<svg width="230" height="138" viewBox="0 0 230 138" version="1.1" xmlns="http://www.w3.org/2000/svg" xmlns:xlink="http://www.w3.org/1999/xlink">
<title>Wind</title>
<desc>Created using Figma</desc>
<g id="Canvas" transform="matrix(2 0 0 2 1526 -1070)">
<g id="Wind">
<g id="Vector 13">
<use xlink:href="#path0_stroke" transform="translate(-743.144 545.419)" fill="#7AAEE7"/>
</g>
<g id="Vector 13">
<use xlink:href="#path1_stroke" transform="matrix(1 0 0 -1 -761 602)" fill="#7AAEE7"/>
</g>
<g id="Vector 13">
<use xlink:href="#path2_stroke" transform="matrix(1 0 0 -1 -725.902 593.684)" fill="#7AAEE7"/>
</g>
<g id="Vector 13">
<use xlink:href="#path3_stroke" transform="translate(-752.072 537.268)" fill="#7AAEE7"/>
</g>
</g>
</g>
<defs>
<path id="path0_stroke" d="M 0 22.8054C -0.828427 22.8054 -1.5 23.477 -1.5 24.3054C -1.5 25.1338 -0.828427 25.8054 0 25.8054L 0 22.8054ZM 92.6502 9.34853L 94.1368 9.14884L 92.6502 9.34853ZM 78.3133 0.23982L 78.1019 -1.2452L 78.3133 0.23982ZM 69.6118 9.86604L 68.22 10.4252L 68.2267 10.4421L 68.2339 10.4587L 69.6118 9.86604ZM 83.9758 10.5475C 84.2846 9.77877 83.9118 8.90525 83.1431 8.59642C 82.3744 8.28759 81.5009 8.6604 81.1921 9.42911L 83.9758 10.5475ZM 0 25.8054C 15.4803 25.8053 50.894 25.2878 69.4462 25.2879L 69.4462 22.2879C 50.8721 22.2879 15.4583 22.8054 0 22.8054L 0 25.8054ZM 69.4462 25.2879C 81.1563 25.2879 87.649 23.0469 91.0745 19.7009C 94.588 16.2688 94.5248 12.0372 94.1368 9.14884L 91.1635 9.54822C 91.5133 12.1522 91.4501 15.1402 88.9782 17.5548C 86.4182 20.0554 80.94 22.2879 69.4462 22.2879L 69.4462 25.2879ZM 94.1368 9.14884C 93.8666 7.16355 92.9405 4.01278 90.5892 1.69036C 88.0751 -0.71329 84.1146 -2.10126 78.1019 -1.2452L 78.5248 1.72484C 83.8739 0.963259 86.8288 2.24566 88.5161 3.85879C 90.3662 5.55314 90.9276 7.76554 91.1635 9.54822L 94.1368 9.14884ZM 78.1019 -1.2452C 73.0796 -0.530154 70.1721 1.44829 68.7571 3.90662C 67.3753 6.30721 67.5948 8.86906 68.22 10.4252L 71.0037 9.30686C 70.6621 8.45649 70.5084 6.87778 71.3571 5.40318C 72.1727 3.98631 74.0993 2.35491 78.5248 1.72484L 78.1019 -1.2452ZM 68.2339 10.4587C 69.4365 13.2545 72.7314 14.9149 75.7834 15.1678C 78.925 15.4281 82.4908 14.2438 83.9758 10.5475L 81.1921 9.42911C 80.3567 11.5085 78.3425 12.3695 76.0312 12.178C 73.6302 11.9791 71.5993 10.6905 70.9898 9.27334L 68.2339 10.4587Z"/>
<path id="path1_stroke" d="M 0 22.5941C -0.828427 22.5941 -1.5 23.2657 -1.5 24.0941C -1.5 24.9226 -0.828427 25.5941 0 25.5941L 0 22.5941ZM 92.6502 9.13732L 94.0752 8.66912L 94.0752 8.66912L 92.6502 9.13732ZM 78.3133 0.0286089L 78.248 -1.46997L 78.3133 0.0286089ZM 69.6118 9.65482L 68.22 10.214L 68.2267 10.2309L 68.2339 10.2475L 69.6118 9.65482ZM 83.9758 10.3363C 84.2847 9.56755 83.9119 8.69403 83.1431 8.3852C 82.3744 8.07637 81.5009 8.44918 81.1921 9.21789L 83.9758 10.3363ZM 0 25.5941C 15.4803 25.5941 50.894 25.0766 69.4462 25.0766L 69.4462 22.0766C 50.8721 22.0767 15.4583 22.5942 0 22.5941L 0 25.5941ZM 69.4462 25.0766C 81.1668 25.0766 87.8882 22.7745 91.4298 19.4204C 95.0869 15.9568 95.0639 11.6783 94.0752 8.66912L 91.2251 9.60551C 91.9662 11.8611 91.9432 14.8022 89.3669 17.2422C 86.6751 19.7915 80.9296 22.0766 69.4462 22.0766L 69.4462 25.0766ZM 94.0752 8.66912C 93.4184 6.67019 92.4033 3.92352 90.1074 1.79931C 87.682 -0.378257 83.9959 -1.72057 78.248 -1.46997L 78.3787 1.52719C 83.5974 1.29965 86.4278 2.52743 88.1032 4.03162C 89.9081 5.58917 90.5781 7.63592 91.2251 9.60551L 94.0752 8.66912ZM 78.248 -1.46997C 73.1071 -1.24583 70.1338 0.752901 68.7153 3.38251C 67.3672 5.88145 67.5943 8.65656 68.22 10.214L 71.0037 9.09564C 70.6626 8.24655 70.4876 6.41577 71.3556 4.80685C 72.153 3.3286 74.0139 1.71749 78.3787 1.52719L 78.248 -1.46997ZM 68.2339 10.2475C 69.4365 13.0432 72.7315 14.7036 75.7834 14.9565C 78.925 15.2169 82.4908 14.0326 83.9758 10.3363L 81.1921 9.21789C 80.3567 11.2973 78.3425 12.1583 76.0312 11.9668C 73.6302 11.7678 71.5993 10.4792 70.9898 9.06212L 68.2339 10.2475Z"/>
<path id="path2_stroke" d="M 0.282767 14.017C -0.54566 14.017 -1.21723 14.6886 -1.21723 15.517C -1.21723 16.3454 -0.54566 17.017 0.282767 17.017L 0.282767 14.017ZM 20.6526 6.14601L 22.0769 5.67534L 22.0769 5.67534L 20.6526 6.14601ZM 11.0332 0.0700351L 11.1647 1.56426L 11.0332 0.0700351ZM 5.19484 6.49122L 3.8041 7.05323L 3.81093 7.07013L 3.81817 7.08685L 5.19484 6.49122ZM 14.8481 7.05322C 15.1584 6.28514 14.7874 5.41087 14.0193 5.10048C 13.2512 4.7901 12.377 5.16114 12.0666 5.92922L 14.8481 7.05322ZM 0.282767 17.017C 1.58018 17.017 2.42405 17.017 2.93183 17.017C 3.18572 17.017 3.35559 17.017 3.45611 17.017C 3.50637 17.017 3.53929 17.017 3.55671 17.017C 3.56543 17.017 3.57026 17.017 3.57145 17.017C 3.5716 17.017 3.57169 17.017 3.57173 17.017C 3.57176 15.517 3.57174 14.017 3.57167 14.017C 3.57151 14.017 3.57113 14.017 3.57053 14.017C 3.56933 14.017 3.56725 14.017 3.56432 14.017C 3.47036 14.017 2.50177 14.017 1.59805 14.017C 1.14619 14.017 0.71055 14.017 0.408564 14.017C 0.257571 14.017 0.139992 14.017 0.0705065 14.017C 0.0357639 14.017 0.0130446 14.017 0.00418379 14.017C 0.00196858 14.017 0.000619521 14.017 0.000165285 14.017C 5.17265e-05 14.017 -5.906e-06 14.017 -7.16411e-06 14.017C -8.42221e-06 15.517 4.6694e-05 17.017 0.000158633 17.017C 0.00038251 17.017 0.000833677 17.017 0.00151572 17.017C 0.00424388 17.017 0.010666 17.017 0.0210115 17.017C 0.186539 17.017 1.35644 17.017 4.47023 17.017L 4.47023 14.017C 1.35644 14.017 0.186539 14.017 0.0210115 14.017C 0.010666 14.017 0.00424388 14.017 0.00151572 14.017C 0.000833677 14.017 0.00038251 14.017 0.000158633 14.017C 4.6694e-05 14.017 -8.42221e-06 15.517 -7.16411e-06 17.017C -5.906e-06 17.017 5.17265e-05 17.017 0.000165285 17.017C 0.000619521 17.017 0.00196858 17.017 0.00418379 17.017C 0.0130446 17.017 0.0357639 17.017 0.0705065 17.017C 0.139992 17.017 0.257571 17.017 0.408564 17.017C 0.71055 17.017 1.14619 17.017 1.59805 17.017C 2.50177 17.017 3.47036 17.017 3.56432 17.017C 3.56725 17.017 3.56933 17.017 3.57053 17.017C 3.57113 17.017 3.57151 17.017 3.57167 17.017C 3.57174 17.017 3.57176 15.517 3.57173 14.017C 3.57169 14.017 3.5716 14.017 3.57145 14.017C 3.57026 14.017 3.56543 14.017 3.55671 14.017C 3.53929 14.017 3.50637 14.017 3.45611 14.017C 3.35559 14.017 3.18572 14.017 2.93183 14.017C 2.42405 14.017 1.58018 14.017 0.282767 14.017L 0.282767 17.017ZM 4.47023 17.017C 12.3717 17.017 17.151 15.5436 19.8053 13.2924C 22.5911 10.9295 22.8161 7.91216 22.0769 5.67534L 19.2284 6.61668C 19.6498 7.89175 19.568 9.55988 17.8647 11.0045C 16.0299 12.5608 12.1377 14.017 4.47023 14.017L 4.47023 17.017ZM 22.0769 5.67534C 21.6408 4.35567 20.9341 2.33315 19.3248 0.771231C 17.5628 -0.866849 14.9114 -1.77721 10.9016 -1.42419L 11.1647 1.56426C 14.5913 1.26258 16.3121 2.0666 17.2821 2.96839C 18.4048 3.94633 18.7897 5.28915 19.2284 6.61668L 22.0769 5.67534ZM 10.9016 -1.42419C 7.38031 -1.11416 5.2328 0.271566 4.17879 2.15628C 3.1785 3.94497 3.33563 5.89393 3.8041 7.05323L 6.58558 5.92922C 6.40535 5.48323 6.30463 4.50131 6.79716 3.62057C 7.236 2.83587 8.33201 1.81365 11.1647 1.56426L 10.9016 -1.42419ZM 3.81817 7.08685C 4.70986 9.14779 6.98699 10.3265 9.0848 10.4855C 11.2824 10.6521 13.7657 9.73152 14.8481 7.05322L 12.0666 5.92922C 11.592 7.10363 10.5521 7.58814 9.31158 7.4941C 7.97134 7.3925 6.89568 6.64484 6.57151 5.89559L 3.81817 7.08685Z"/>
<path id="path3_stroke" d="M 0 18.685C -0.828427 18.685 -1.5 19.3565 -1.5 20.185C -1.5 21.0134 -0.828427 21.685 0 21.685L 0 18.685ZM 71.046 8.13357L 72.5316 7.92658L 71.046 8.13357ZM 59.945 0.0993092L 60.0987 1.59142L 59.945 0.0993092ZM 53.2845 8.13357L 51.877 8.65217L 51.8829 8.66817L 51.8891 8.68403L 53.2845 8.13357ZM 64.6215 8.7542C 64.9079 7.97686 64.5099 7.11452 63.7326 6.82811C 62.9552 6.54169 62.0929 6.93967 61.8065 7.71701L 64.6215 8.7542ZM 0 21.685C 11.841 21.685 39.0753 21.685 53.2845 21.685L 53.2845 18.685C 39.0753 18.685 11.841 18.685 0 18.685L 0 21.685ZM 53.2845 21.685C 62.3018 21.685 67.427 19.7928 70.1559 16.8915C 72.9318 13.9401 72.8675 10.3377 72.5316 7.92658L 69.5603 8.34056C 69.8577 10.4748 69.7934 12.8981 67.9706 14.8361C 66.1008 16.8241 62.0286 18.685 53.2845 18.685L 53.2845 21.685ZM 72.5316 7.92658C 72.2798 6.11934 71.6518 3.50452 69.7152 1.46667C 67.7095 -0.643966 64.5508 -1.88292 59.7914 -1.3928L 60.0987 1.59142C 64.1663 1.17254 66.321 2.2499 67.5405 3.53324C 68.8293 4.88937 69.3382 6.74618 69.5603 8.34056L 72.5316 7.92658ZM 59.7914 -1.3928C 55.7371 -0.975292 53.3699 0.752345 52.2487 2.96952C 51.1856 5.07185 51.3914 7.33434 51.877 8.65217L 54.692 7.61497C 54.4375 6.92426 54.307 5.54719 54.9259 4.32332C 55.4867 3.2143 56.8198 1.92908 60.0987 1.59142L 59.7914 -1.3928ZM 51.8891 8.68403C 52.8486 11.1161 55.493 12.5811 57.9683 12.8048C 60.5554 13.0385 63.4431 11.9524 64.6215 8.7542L 61.8065 7.71701C 61.2087 9.33941 59.8252 9.96031 58.2383 9.81693C 56.5397 9.66347 55.1075 8.66714 54.6798 7.58312L 51.8891 8.68403Z"/>
</defs>
</svg>
